# xmcd
#
# Track frame offsets: 
#        150
#        17292
#        33560
#
# Disc length: 688 seconds
#
# Revision: 0
# Processed by: cddbd v1.5.2PL0 Copyright (c) Steve Scherf et al.
# Submitted via: ExactAudioCopy v0.95b4
#
DISCID=1602ae03
DTITLE=Vince Gill - Don´t Let Our Love Start Slippin´ Away
DYEAR=1993
DGENRE=Country
TTITLE0=Don´t Let Our Love Start Slippin Away
TTITLE1=Never Alone
TTITLE2=Never Knew Lonely
EXTD=
EXTT0=
EXTT1=
EXTT2=
PLAYORDER=
